<mxfile host="65bd71144e">
    <diagram id="pHUYw0eKJWcnFp-jadJT" name="Page-1">
        <mxGraphModel dx="1088" dy="719" grid="1" gridSize="10" guides="1" tooltips="1" connect="1" arrows="1" fold="1" page="1" pageScale="1" pageWidth="1600" pageHeight="900" math="0" shadow="0">
            <root>
                <mxCell id="0"/>
                <mxCell id="1" parent="0"/>
                <mxCell id="2" value="" style="shape=mxgraph.cisco.computers_and_peripherals.pc;sketch=0;html=1;pointerEvents=1;dashed=0;fillColor=#036897;strokeColor=#ffffff;strokeWidth=2;verticalLabelPosition=bottom;verticalAlign=top;align=center;outlineConnect=0;" vertex="1" parent="1">
                    <mxGeometry x="190" y="280" width="78" height="70" as="geometry"/>
                </mxCell>
                <mxCell id="3" value="&lt;h1&gt;Client&lt;/h1&gt;" style="text;html=1;align=center;verticalAlign=middle;whiteSpace=wrap;rounded=0;" vertex="1" parent="1">
                    <mxGeometry x="199" y="240" width="60" height="30" as="geometry"/>
                </mxCell>
                <mxCell id="4" value="" style="shape=singleArrow;whiteSpace=wrap;html=1;" vertex="1" parent="1">
                    <mxGeometry x="290" y="297.5" width="58.33" height="35" as="geometry"/>
                </mxCell>
                <mxCell id="7" value="&lt;h1&gt;HTTP&lt;/h1&gt;&lt;div&gt;GET&lt;/div&gt;&lt;div&gt;POST&lt;/div&gt;&lt;div&gt;DELETE&lt;/div&gt;&lt;div&gt;PUT&lt;/div&gt;&lt;div&gt;PATCH&lt;/div&gt;" style="rounded=1;whiteSpace=wrap;html=1;" vertex="1" parent="1">
                    <mxGeometry x="360" y="246.25" width="90" height="137.5" as="geometry"/>
                </mxCell>
                <mxCell id="9" value="&lt;h1&gt;URL&lt;/h1&gt;&lt;div&gt;/livres&lt;/div&gt;&lt;div&gt;/livres/1&lt;/div&gt;&lt;div&gt;....&lt;/div&gt;" style="rounded=1;whiteSpace=wrap;html=1;" vertex="1" parent="1">
                    <mxGeometry x="470" y="246.25" width="90" height="137.5" as="geometry"/>
                </mxCell>
                <mxCell id="10" value="" style="shape=singleArrow;whiteSpace=wrap;html=1;" vertex="1" parent="1">
                    <mxGeometry x="580" y="297.5" width="58.33" height="35" as="geometry"/>
                </mxCell>
                <mxCell id="11" value="" style="shape=mxgraph.cisco.servers.www_server;sketch=0;html=1;pointerEvents=1;dashed=0;fillColor=#036897;strokeColor=#ffffff;strokeWidth=2;verticalLabelPosition=bottom;verticalAlign=top;align=center;outlineConnect=0;" vertex="1" parent="1">
                    <mxGeometry x="660" y="283" width="66" height="67" as="geometry"/>
                </mxCell>
                <mxCell id="12" value="&lt;h1&gt;Serveur&lt;/h1&gt;" style="text;html=1;align=center;verticalAlign=middle;whiteSpace=wrap;rounded=0;" vertex="1" parent="1">
                    <mxGeometry x="666" y="240" width="60" height="30" as="geometry"/>
                </mxCell>
                <mxCell id="20" style="edgeStyle=none;html=1;entryX=1;entryY=0.5;entryDx=0;entryDy=0;" edge="1" parent="1" source="13" target="19">
                    <mxGeometry relative="1" as="geometry">
                        <Array as="points">
                            <mxPoint x="840" y="450"/>
                        </Array>
                    </mxGeometry>
                </mxCell>
                <mxCell id="13" value="&lt;h1&gt;Repository&lt;br&gt;Service&lt;br&gt;Controller&lt;/h1&gt;" style="rounded=1;whiteSpace=wrap;html=1;" vertex="1" parent="1">
                    <mxGeometry x="760" y="240" width="160" height="143.75" as="geometry"/>
                </mxCell>
                <mxCell id="14" value="" style="shape=mxgraph.cisco.storage.relational_database;sketch=0;html=1;pointerEvents=1;dashed=0;fillColor=#036897;strokeColor=#ffffff;strokeWidth=2;verticalLabelPosition=bottom;verticalAlign=top;align=center;outlineConnect=0;" vertex="1" parent="1">
                    <mxGeometry x="807" y="90" width="66" height="53" as="geometry"/>
                </mxCell>
                <mxCell id="15" value="" style="shape=doubleArrow;whiteSpace=wrap;html=1;rotation=-90;" vertex="1" parent="1">
                    <mxGeometry x="815" y="180" width="50" height="30" as="geometry"/>
                </mxCell>
                <mxCell id="16" value="&lt;h1&gt;DB&lt;/h1&gt;" style="text;html=1;align=center;verticalAlign=middle;whiteSpace=wrap;rounded=0;" vertex="1" parent="1">
                    <mxGeometry x="810" y="50" width="60" height="30" as="geometry"/>
                </mxCell>
                <mxCell id="21" style="edgeStyle=none;html=1;" edge="1" parent="1" source="19">
                    <mxGeometry relative="1" as="geometry">
                        <mxPoint x="230" y="370" as="targetPoint"/>
                        <Array as="points">
                            <mxPoint x="230" y="450"/>
                        </Array>
                    </mxGeometry>
                </mxCell>
                <mxCell id="19" value="&lt;h1&gt;JSON&lt;/h1&gt;" style="rounded=1;whiteSpace=wrap;html=1;" vertex="1" parent="1">
                    <mxGeometry x="480" y="430" width="80" height="40" as="geometry"/>
                </mxCell>
            </root>
        </mxGraphModel>
    </diagram>
</mxfile>